<svg xmlns="http://www.w3.org/2000/svg" width="67" height="41">
    <path fill="#D3E6F9" d="M44.13 10.29v11.58l-2.68 1.83V12.13z"/>
    <path fill="#5774BA" d="M44.13 10.29l-2.68 1.84-4.13-1.25V8.24z"/>
    <path fill="#D3E6F9" d="M37.32 10.88v12.37l-2.68 1.84V5.21l2.68-1.83v4.86z"/>
    <path fill="#5774BA" d="M37.32 3.38l-2.68 1.83-7.96-2.4-2.68-.8L26.68.17zm-2.68 4.05v2.64l-4.46-1.34-2.68-.81 2.68-1.83z"/>
    <path fill="#D3E6F9" d="M33.82 24.45v1.19l-2.68 1.84v-7.36l2.68-1.84v2.23z"/>
    <path fill="#5774BA" d="M27.5 11.54l2.69 2.87 3.63 3.87-2.68 1.84-1.77-1.89-1.86-1.99-.83-.88-2.34-2.5 2.69-1.83zm3.64 12v3.94L24 21.88l2.68-1.83zm0-3.42v2.22L27.5 19.5l1.86-1.27z"/>
    <path fill="#3E4C84" d="M30.19 14.41l-2.7-2.87V7.92l2.69.81zm-2.69 1.83l1.87 1.99-1.86 1.27zm-.82-.88v4.69L24 21.88v-8.86l.34-.16zm0-12.55v8.38L24 12.42V2.01zM20.2 14.77v6.77l-2.7 1.83v-7.36z"/>
    <path fill="#5774BA" d="M24 12.42l2.68-1.23.35-.16-2.7 1.83-.33.16-3.8 1.75-2.7 1.24 2.7-1.83z"/>
    <path fill="#274A7F" d="M.18 33.98h4.19v.67H.91v2.14h3.43v.66H.91v2.68h3.43v.67H.18zm10.39 0h.85l1.75 2.65 1.76-2.65h.85l-2.18 3.3 2.32 3.52h-.85l-1.9-2.88-1.91 2.88h-.85l2.33-3.52zm11.9 0h1.45a9 9 0 0 1 1.7.1c.41.1.75.3 1.02.6.26.3.4.67.4 1.12 0 .45-.13.83-.4 1.12-.25.3-.6.5-1.06.6-.33.07-.95.11-1.86.11h-.52v3.17h-.73v-6.82zm.73.67v2.31l1.24.02c.5 0 .86-.05 1.1-.13a1.12 1.12 0 0 0 .74-1.05 1.1 1.1 0 0 0-.72-1.03 3.36 3.36 0 0 0-1.07-.12h-1.3zm14.1-.85c1.1 0 2.03.35 2.78 1.04a3.33 3.33 0 0 1 1.12 2.55c0 1-.37 1.84-1.12 2.54a3.84 3.84 0 0 1-2.72 1.04c-1.09 0-2-.34-2.75-1.04a3.45 3.45 0 0 1-.6-4.34c.33-.55.8-.99 1.38-1.3a3.95 3.95 0 0 1 1.9-.48zm.03.67a3.18 3.18 0 0 0-2.67 1.46c-.27.44-.4.94-.4 1.49 0 .81.3 1.5.9 2.05.6.56 1.32.84 2.17.84.57 0 1.1-.13 1.58-.39a2.86 2.86 0 0 0 1.13-4 3.26 3.26 0 0 0-2.7-1.45zm10.7-.49h1.45c.81 0 1.36.03 1.65.1.44.09.79.28 1.06.59.27.3.4.68.4 1.13 0 .37-.09.7-.27.98-.19.28-.46.49-.8.63-.35.15-.83.22-1.45.22l2.63 3.17h-.9l-2.63-3.17h-.41v3.17h-.73v-6.82zm.73.67v2.32h1.26c.48 0 .84-.04 1.08-.12a1.11 1.11 0 0 0 .74-1.06 1 1 0 0 0-.2-.62 1.1 1.1 0 0 0-.52-.4 3.39 3.39 0 0 0-1.07-.12h-1.3zm14.21-.85c1.1 0 2.03.35 2.78 1.04a3.33 3.33 0 0 1 1.12 2.55c0 1-.38 1.84-1.12 2.54a3.84 3.84 0 0 1-2.72 1.04c-1.09 0-2-.34-2.75-1.04a3.44 3.44 0 0 1-.6-4.34c.33-.55.8-.99 1.38-1.3a3.95 3.95 0 0 1 1.9-.48zm.03.67a3.18 3.18 0 0 0-2.67 1.46c-.28.44-.41.94-.41 1.49 0 .81.3 1.5.9 2.05.6.56 1.33.84 2.18.84.57 0 1.1-.13 1.57-.39a2.86 2.86 0 0 0 1.13-4 3.26 3.26 0 0 0-2.7-1.45z"/>
</svg>
