<svg xmlns="http://www.w3.org/2000/svg" xmlns:xlink="http://www.w3.org/1999/xlink" width="77" height="20">
    <defs>
        <path id="a" d="M0 19.96V.24h76.14v19.72z"/>
    </defs>
    <g fill="none" fill-rule="evenodd">
        <path fill="#1B223F" d="M2.32 2.87c.17 0 .32-.02.46-.05a.8.8 0 0 0 .36-.2c.1-.08.18-.19.23-.33.05-.13.08-.3.08-.5 0-.34-.1-.6-.3-.78-.2-.17-.48-.26-.86-.26H.74v2.12h1.58zM.21 5.71V.3h2.17c.52 0 .92.12 1.19.37.27.25.4.62.4 1.11 0 .28-.03.5-.12.7-.09.2-.2.37-.35.5-.15.12-.32.21-.52.27-.2.06-.4.1-.63.1H.75V5.7H.2zM5.4 3.9c-.31.06-.53.14-.65.26a.67.67 0 0 0-.18.5c0 .21.08.4.23.54.15.14.37.21.66.21a1.35 1.35 0 0 0 .94-.37 1.3 1.3 0 0 0 .38-.93v-.44L5.4 3.9zm1.02-.57c.15-.02.25-.05.28-.09.04-.03.06-.1.06-.17v-.23a.68.68 0 0 0-.22-.52c-.14-.14-.4-.2-.77-.2-.2 0-.36.02-.49.06a.91.91 0 0 0-.31.19.63.63 0 0 0-.17.27.93.93 0 0 0-.05.34h-.51c0-.16.03-.32.08-.48a.9.9 0 0 1 .26-.41c.12-.12.28-.22.48-.3.2-.07.45-.1.75-.1.5 0 .85.1 1.09.3.23.2.34.48.34.83v2.25c0 .11.02.2.05.24.03.05.1.08.19.08.05 0 .12-.02.2-.05v.38a1.07 1.07 0 0 1-.34.06.64.64 0 0 1-.4-.12c-.1-.08-.16-.2-.16-.39v-.26c-.1.22-.26.4-.48.56-.22.16-.53.24-.91.24-.44 0-.77-.1-1-.32a1.09 1.09 0 0 1-.33-.82c0-.34.1-.6.3-.78.18-.18.5-.3.94-.38l1.12-.18zM8.4 5.71V1.78h.48v.76c.03-.11.08-.22.13-.31a1.09 1.09 0 0 1 .53-.47c.13-.05.27-.08.44-.08h.06l.1.02v.5l-.08-.02h-.05c-.2 0-.38.04-.52.12a.91.91 0 0 0-.34.34 1.6 1.6 0 0 0-.19.5c-.04.2-.06.43-.06.66v1.91h-.5m2.63-3.55h-.56v-.38h.56V.63h.5v1.15h.64v.38h-.63v2.8c0 .12.02.22.06.27.04.06.1.09.2.09s.21-.02.34-.05v.44l-.21.05a1.3 1.3 0 0 1-.24.02.7.7 0 0 1-.49-.16c-.11-.1-.17-.3-.17-.59V2.16m2.27.27c.08-.22.23-.4.43-.54.2-.14.48-.2.8-.2.2 0 .37.02.53.07a1.06 1.06 0 0 1 .69.65c.06.17.09.36.09.6v2.7h-.5V3.15c0-.31-.07-.56-.2-.75-.14-.2-.37-.29-.7-.29a1.03 1.03 0 0 0-.83.37c-.1.12-.17.26-.22.41-.05.16-.07.33-.07.5v2.32h-.5V1.78h.47v.65m6.25 1c-.01-.4-.12-.72-.32-.96s-.48-.36-.84-.36a1.17 1.17 0 0 0-.94.45c-.1.13-.18.27-.23.42-.05.16-.08.31-.1.45h2.43zm-2.43.4c0 .49.11.87.34 1.14.22.27.54.41.94.41a1.13 1.13 0 0 0 .81-.27c.1-.08.17-.18.23-.29.05-.1.1-.22.13-.34h.5a2 2 0 0 1-.19.5 1.57 1.57 0 0 1-.83.71 1.86 1.86 0 0 1-1.38-.02 1.6 1.6 0 0 1-.56-.4 1.79 1.79 0 0 1-.35-.63 2.86 2.86 0 0 1-.01-1.66c.07-.26.18-.48.33-.67a1.62 1.62 0 0 1 1.32-.63c.29 0 .54.06.75.16.2.1.38.25.51.43.14.18.24.39.3.63.07.24.1.5.1.76v.16H17.1zm3.79 1.88V1.78h.49v.76c.03-.11.08-.22.14-.31a1.09 1.09 0 0 1 .53-.47c.12-.05.26-.08.43-.08h.06l.1.02v.5l-.08-.02h-.04c-.21 0-.39.04-.53.12a.91.91 0 0 0-.34.34c-.08.14-.15.3-.19.5-.04.2-.06.43-.06.66v1.91h-.5m6.23-.33a1.18 1.18 0 0 0 .94-.45c.12-.14.2-.31.26-.51s.1-.43.1-.69c0-.5-.11-.89-.33-1.18a1.14 1.14 0 0 0-.97-.44 1.18 1.18 0 0 0-.94.45c-.12.14-.2.32-.27.52-.06.2-.09.43-.09.68 0 .5.11.9.33 1.18.21.3.54.44.97.44zm0 .43c-.57 0-1.02-.18-1.33-.54a2.23 2.23 0 0 1-.47-1.52c0-.31.04-.6.13-.85.1-.26.21-.48.37-.66a1.78 1.78 0 0 1 1.3-.56c.57 0 1 .19 1.33.55.31.36.47.87.47 1.5 0 .33-.04.61-.13.87-.09.25-.2.47-.37.65a1.77 1.77 0 0 1-1.3.56z"/>
        <mask id="b" fill="#fff">
            <use xlink:href="#a"/>
        </mask>
        <path fill="#1B223F" d="M29.9 5.71V2.16h-.56v-.38h.56v-.72c0-.29.07-.5.23-.63a.9.9 0 0 1 .62-.2 3.93 3.93 0 0 1 .3.03v.42a1.44 1.44 0 0 0-.26-.01c-.14 0-.24.04-.3.12a.64.64 0 0 0-.08.36v.63h.66v.38h-.66v3.55h-.51m42.7 8.57c-.71 0-1.2.4-1.35 1.32h2.61c-.04-.87-.49-1.32-1.26-1.32zm.06-1.53c2.3 0 3.59 1.53 3.47 4.19h-4.88c.03.98.57 1.55 1.42 1.55.6 0 1.05-.28 1.26-.8h2.1c-.37 1.5-1.64 2.31-3.36 2.31-2.28 0-3.68-1.42-3.68-3.6 0-2.23 1.44-3.65 3.67-3.65zM37.4 18.17c-.76 0-1.35-.37-1.35-1.06 0-.49.3-.85.96-1.24l1.59 1.87c-.37.3-.75.43-1.2.43zm.38-6.36c.43 0 .83.25.83.76 0 .4-.24.69-.9 1.12-.48-.5-.73-.8-.73-1.18 0-.4.32-.7.8-.7zm5.35 8l-1.88-2.11a5.41 5.41 0 0 0 1.18-2.75H40.5c-.1.5-.26.95-.49 1.34l-1.18-1.31c1.06-.65 1.62-1.35 1.62-2.36 0-1.45-1.15-2.44-2.68-2.44-1.55 0-2.77 1.03-2.77 2.35 0 .71.37 1.26.92 1.9-1.36.67-2.02 1.58-2.02 2.73 0 1.68 1.4 2.84 3.28 2.84.94 0 1.77-.3 2.58-.93l.64.75h2.74zm9.16-9.46l-1.65 5.94h-.02L49 10.35h-3.64v9.47h2.32V13.4h.02l2 6.42h1.89l1.97-6.42h.03v6.42h2.32v-9.47H52.3zm-37.7 9.47h2.25v-9.47h-2.26v9.47zm-3.14 0h2.26v-6.88h-2.26v6.87zm-4.53-9.47h3.62v9.47H8.23v-6.43H8.2l-1.97 6.43H4.35l-2-6.43h-.03v6.43H0v-9.47h3.64l1.62 5.93h.03l1.64-5.93zm4.53 1.71h2.26v-1.7h-2.26v1.7zm9.63 2.22c-.72 0-1.21.4-1.35 1.32h2.6c-.04-.87-.48-1.32-1.25-1.32zm.05-1.53c2.3 0 3.59 1.53 3.47 4.19h-4.87c.02.98.56 1.55 1.41 1.55.6 0 1.05-.28 1.26-.8h2.1c-.36 1.5-1.64 2.31-3.36 2.31-2.28 0-3.68-1.42-3.68-3.6 0-2.23 1.44-3.65 3.67-3.65zm8.11 2.84c1.46.3 2.28.78 2.28 1.99 0 1.47-1.22 2.42-3.35 2.42-2.02 0-3.17-.86-3.21-2.3h2.16c0 .49.5.86 1.14.86.58 0 1.02-.3 1.02-.78 0-.4-.3-.54-1.33-.7-1.21-.18-2.86-.44-2.86-2.17 0-1.75 1.7-2.16 3.1-2.16 1.98 0 3.05.84 3.08 2.15H29.2c0-.44-.33-.68-1.02-.68-.54 0-.85.15-.85.52 0 .62.84.64 1.91.85zm30.92 2.67c.96 0 1.4-.56 1.4-1.82 0-1.29-.47-1.98-1.4-1.98-.95 0-1.36.72-1.36 1.98 0 1.24.4 1.82 1.36 1.82zm.01-5.5c2.18 0 3.62 1.43 3.62 3.66 0 2.18-1.38 3.58-3.63 3.58s-3.63-1.39-3.63-3.56c0-2.26 1.47-3.69 3.64-3.69zm8.65.05v1.98l-.46-.02c-1.03 0-1.7.67-1.7 1.64v3.4h-2.25v-6.87h2.18l.03.8c.37-.55.88-.96 1.84-.96.17 0 .29.01.36.03z" mask="url(#b)"/>
    </g>
</svg>
